# xmcd CD database file
#
# Track frame offsets:
#	150
#	15691
#	34092
#	50139
#	65048
#	80959
#	102275
#	123783
#	140586
#	151640
#	169896
#	190612
#	205524
#	228093
#	248261
#	265843
#	283863
#
# Disc length: 3999 seconds
#
# Revision: 0
# Processed by: cddbd v1.5.2PL0 Copyright (c) Steve Scherf et al.
# Submitted via: CDex 1.51
#
DISCID=e30f9d11
DTITLE=Bauchnusti Stompers - 15 Jahre Bauchnusti Stompers
DYEAR=2002
DGENRE=Jazz
TTITLE0=Royal garden blues
TTITLE1=Just a little while
TTITLE2=Ob the sunny side of the street
TTITLE3=Chinatown
TTITLE4=All of me
TTITLE5=Wolverine blues
TTITLE6=Alexanders ragtime band
TTITLE7=Memphis blues
TTITLE8=Eh la bas
TTITLE9=Buddy´s habits
TTITLE10=Bel ami
TTITLE11=Avalon
TTITLE12=Bourbon street parade
TTITLE13=Bei mir bist du schön
TTITLE14=Jazz me blues
TTITLE15=Darktown strutters ball
TTITLE16=When it´s sleepy time down south
EXTD=YEAR: 2002
EXTT0=
EXTT1=
EXTT2=
EXTT3=
EXTT4=
EXTT5=
EXTT6=
EXTT7=
EXTT8=
EXTT9=
EXTT10=
EXTT11=
EXTT12=
EXTT13=
EXTT14=
EXTT15=
EXTT16=
PLAYORDER=
